<svg width="32" height="32" viewBox="0 0 32 32" fill="none" xmlns="http://www.w3.org/2000/svg">
<path d="M23.8672 27.0312H3.51562C2.96334 27.0312 2.51562 26.5835 2.51562 26.0312C2.51562 25.479 2.96334 25.0312 3.51562 25.0312H23.8672V27.0312Z" fill="url(#paint0_linear_12106_38052)"/>
<path d="M23.8672 27.0312H3.51562C2.96334 27.0312 2.51562 26.5835 2.51562 26.0312C2.51562 25.479 2.96334 25.0312 3.51562 25.0312H23.8672V27.0312Z" fill="url(#paint1_radial_12106_38052)"/>
<path d="M24.6562 17.375C24.104 17.375 23.6562 17.8227 23.6562 18.375C23.6562 18.9273 24.104 19.375 24.6562 19.375C26.2182 19.375 27.4844 20.6412 27.4844 22.2031C27.4844 23.7651 26.2182 25.0312 24.6562 25.0312H23.8672V27.0312H24.6562C27.3228 27.0312 29.4844 24.8696 29.4844 22.2031C29.4844 19.5366 27.3228 17.375 24.6562 17.375Z" fill="url(#paint2_radial_12106_38052)"/>
<path d="M24.6562 17.375C24.104 17.375 23.6562 17.8227 23.6562 18.375C23.6562 18.9273 24.104 19.375 24.6562 19.375C26.2182 19.375 27.4844 20.6412 27.4844 22.2031C27.4844 23.7651 26.2182 25.0312 24.6562 25.0312H23.8672V27.0312H24.6562C27.3228 27.0312 29.4844 24.8696 29.4844 22.2031C29.4844 19.5366 27.3228 17.375 24.6562 17.375Z" fill="url(#paint3_radial_12106_38052)"/>
<path d="M24.6562 17.375C24.104 17.375 23.6562 17.8227 23.6562 18.375C23.6562 18.9273 24.104 19.375 24.6562 19.375C26.2182 19.375 27.4844 20.6412 27.4844 22.2031C27.4844 23.7651 26.2182 25.0312 24.6562 25.0312H23.8672V27.0312H24.6562C27.3228 27.0312 29.4844 24.8696 29.4844 22.2031C29.4844 19.5366 27.3228 17.375 24.6562 17.375Z" fill="url(#paint4_radial_12106_38052)"/>
<path d="M24.6562 17.375C24.104 17.375 23.6562 17.8227 23.6562 18.375C23.6562 18.9273 24.104 19.375 24.6562 19.375C26.2182 19.375 27.4844 20.6412 27.4844 22.2031C27.4844 23.7651 26.2182 25.0312 24.6562 25.0312H23.8672V27.0312H24.6562C27.3228 27.0312 29.4844 24.8696 29.4844 22.2031C29.4844 19.5366 27.3228 17.375 24.6562 17.375Z" fill="url(#paint5_radial_12106_38052)"/>
<path d="M24.6562 17.375C24.104 17.375 23.6562 17.8227 23.6562 18.375C23.6562 18.9273 24.104 19.375 24.6562 19.375C26.2182 19.375 27.4844 20.6412 27.4844 22.2031C27.4844 23.7651 26.2182 25.0312 24.6562 25.0312H23.8672V27.0312H24.6562C27.3228 27.0312 29.4844 24.8696 29.4844 22.2031C29.4844 19.5366 27.3228 17.375 24.6562 17.375Z" fill="url(#paint6_radial_12106_38052)"/>
<path d="M24.6562 17.375C24.104 17.375 23.6562 17.8227 23.6562 18.375C23.6562 18.9273 24.104 19.375 24.6562 19.375C26.2182 19.375 27.4844 20.6412 27.4844 22.2031C27.4844 23.7651 26.2182 25.0312 24.6562 25.0312H23.8672V27.0312H24.6562C27.3228 27.0312 29.4844 24.8696 29.4844 22.2031C29.4844 19.5366 27.3228 17.375 24.6562 17.375Z" fill="url(#paint7_radial_12106_38052)"/>
<circle cx="5.97656" cy="28.4609" r="1.46875" fill="#4381C4"/>
<circle cx="5.97656" cy="28.4609" r="1.46875" fill="url(#paint8_radial_12106_38052)"/>
<circle cx="5.97656" cy="28.4609" r="1.46875" fill="url(#paint9_radial_12106_38052)"/>
<circle cx="5.97656" cy="28.4609" r="1.46875" fill="url(#paint10_radial_12106_38052)"/>
<circle cx="5.97656" cy="28.4609" r="1.03906" fill="#4880CB"/>
<circle cx="5.97656" cy="28.4609" r="1.03906" fill="url(#paint11_radial_12106_38052)"/>
<circle cx="5.97656" cy="28.4609" r="1.03906" fill="url(#paint12_radial_12106_38052)"/>
<path fill-rule="evenodd" clip-rule="evenodd" d="M8.21563 15.9062C8.38131 15.9062 8.51562 15.7719 8.51562 15.6062V12.5578C8.51562 12.3921 8.38131 12.2578 8.21562 12.2578L3.77656 12.2578C3.61088 12.2578 3.47656 12.1235 3.47656 11.9578V11.5578C3.47656 11.3921 3.61088 11.2578 3.77656 11.2578L8.21563 11.2578C8.38131 11.2578 8.51562 11.1235 8.51562 10.9578V7.925C8.51562 7.75931 8.64994 7.625 8.81563 7.625H9.21562C9.38131 7.625 9.51562 7.75931 9.51562 7.925V10.9578C9.51562 11.1235 9.64994 11.2578 9.81563 11.2578L13.7625 11.2578C13.9282 11.2578 14.0625 11.1235 14.0625 10.9578V7.925C14.0625 7.75931 14.1968 7.625 14.3625 7.625H14.7625C14.9282 7.625 15.0625 7.75931 15.0625 7.925V10.9578C15.0625 11.1235 15.1968 11.2578 15.3625 11.2578L19.3094 11.2578C19.4751 11.2578 19.6094 11.1235 19.6094 10.9578V7.925C19.6094 7.75931 19.7437 7.625 19.9094 7.625H20.3094C20.4751 7.625 20.6094 7.75931 20.6094 7.925V10.9578C20.6094 11.1235 20.7437 11.2578 20.9094 11.2578L25.3094 11.2578C25.4751 11.2578 25.6094 11.3921 25.6094 11.5578V11.9578C25.6094 12.1235 25.4751 12.2578 25.3094 12.2578L20.9094 12.2578C20.7437 12.2578 20.6094 12.3921 20.6094 12.5578V15.6062C20.6094 15.7719 20.7437 15.9062 20.9094 15.9062L25.3094 15.9062C25.4751 15.9062 25.6094 16.0406 25.6094 16.2062V16.6062C25.6094 16.7719 25.4751 16.9062 25.3094 16.9062L20.9094 16.9062C20.7437 16.9062 20.6094 17.0406 20.6094 17.2062V21.1875C20.6094 21.3532 20.4751 21.4875 20.3094 21.4875H19.9094C19.7437 21.4875 19.6094 21.3532 19.6094 21.1875V17.2062C19.6094 17.0406 19.4751 16.9062 19.3094 16.9062L15.3625 16.9062C15.1968 16.9062 15.0625 17.0406 15.0625 17.2062V20.3562C15.0625 20.5219 14.9282 20.6562 14.7625 20.6562H14.3625C14.1968 20.6562 14.0625 20.5219 14.0625 20.3562V17.2062C14.0625 17.0406 13.9282 16.9062 13.7625 16.9062L9.81563 16.9062C9.64994 16.9062 9.51562 17.0406 9.51562 17.2062V20.3562C9.51562 20.5219 9.38131 20.6562 9.21562 20.6562H8.81563C8.64994 20.6562 8.51562 20.5219 8.51562 20.3562V17.2062C8.51562 17.0406 8.38131 16.9062 8.21562 16.9062L3.77656 16.9062C3.61088 16.9062 3.47656 16.7719 3.47656 16.6062V16.2063C3.47656 16.0406 3.61088 15.9062 3.77656 15.9062L8.21563 15.9062ZM9.51562 15.6062C9.51562 15.7719 9.64994 15.9062 9.81563 15.9062L13.7625 15.9062C13.9282 15.9062 14.0625 15.7719 14.0625 15.6062V12.5578C14.0625 12.3921 13.9282 12.2578 13.7625 12.2578L9.81562 12.2578C9.64994 12.2578 9.51562 12.3921 9.51562 12.5578V15.6062ZM15.0625 15.6062C15.0625 15.7719 15.1968 15.9062 15.3625 15.9062L19.3094 15.9062C19.4751 15.9062 19.6094 15.7719 19.6094 15.6062V12.5578C19.6094 12.3921 19.4751 12.2578 19.3094 12.2578L15.3625 12.2578C15.1968 12.2578 15.0625 12.3921 15.0625 12.5578V15.6062Z" fill="#A09DA3"/>
<path fill-rule="evenodd" clip-rule="evenodd" d="M8.21563 15.9062C8.38131 15.9062 8.51562 15.7719 8.51562 15.6062V12.5578C8.51562 12.3921 8.38131 12.2578 8.21562 12.2578L3.77656 12.2578C3.61088 12.2578 3.47656 12.1235 3.47656 11.9578V11.5578C3.47656 11.3921 3.61088 11.2578 3.77656 11.2578L8.21563 11.2578C8.38131 11.2578 8.51562 11.1235 8.51562 10.9578V7.925C8.51562 7.75931 8.64994 7.625 8.81563 7.625H9.21562C9.38131 7.625 9.51562 7.75931 9.51562 7.925V10.9578C9.51562 11.1235 9.64994 11.2578 9.81563 11.2578L13.7625 11.2578C13.9282 11.2578 14.0625 11.1235 14.0625 10.9578V7.925C14.0625 7.75931 14.1968 7.625 14.3625 7.625H14.7625C14.9282 7.625 15.0625 7.75931 15.0625 7.925V10.9578C15.0625 11.1235 15.1968 11.2578 15.3625 11.2578L19.3094 11.2578C19.4751 11.2578 19.6094 11.1235 19.6094 10.9578V7.925C19.6094 7.75931 19.7437 7.625 19.9094 7.625H20.3094C20.4751 7.625 20.6094 7.75931 20.6094 7.925V10.9578C20.6094 11.1235 20.7437 11.2578 20.9094 11.2578L25.3094 11.2578C25.4751 11.2578 25.6094 11.3921 25.6094 11.5578V11.9578C25.6094 12.1235 25.4751 12.2578 25.3094 12.2578L20.9094 12.2578C20.7437 12.2578 20.6094 12.3921 20.6094 12.5578V15.6062C20.6094 15.7719 20.7437 15.9062 20.9094 15.9062L25.3094 15.9062C25.4751 15.9062 25.6094 16.0406 25.6094 16.2062V16.6062C25.6094 16.7719 25.4751 16.9062 25.3094 16.9062L20.9094 16.9062C20.7437 16.9062 20.6094 17.0406 20.6094 17.2062V21.1875C20.6094 21.3532 20.4751 21.4875 20.3094 21.4875H19.9094C19.7437 21.4875 19.6094 21.3532 19.6094 21.1875V17.2062C19.6094 17.0406 19.4751 16.9062 19.3094 16.9062L15.3625 16.9062C15.1968 16.9062 15.0625 17.0406 15.0625 17.2062V20.3562C15.0625 20.5219 14.9282 20.6562 14.7625 20.6562H14.3625C14.1968 20.6562 14.0625 20.5219 14.0625 20.3562V17.2062C14.0625 17.0406 13.9282 16.9062 13.7625 16.9062L9.81563 16.9062C9.64994 16.9062 9.51562 17.0406 9.51562 17.2062V20.3562C9.51562 20.5219 9.38131 20.6562 9.21562 20.6562H8.81563C8.64994 20.6562 8.51562 20.5219 8.51562 20.3562V17.2062C8.51562 17.0406 8.38131 16.9062 8.21562 16.9062L3.77656 16.9062C3.61088 16.9062 3.47656 16.7719 3.47656 16.6062V16.2063C3.47656 16.0406 3.61088 15.9062 3.77656 15.9062L8.21563 15.9062ZM9.51562 15.6062C9.51562 15.7719 9.64994 15.9062 9.81563 15.9062L13.7625 15.9062C13.9282 15.9062 14.0625 15.7719 14.0625 15.6062V12.5578C14.0625 12.3921 13.9282 12.2578 13.7625 12.2578L9.81562 12.2578C9.64994 12.2578 9.51562 12.3921 9.51562 12.5578V15.6062ZM15.0625 15.6062C15.0625 15.7719 15.1968 15.9062 15.3625 15.9062L19.3094 15.9062C19.4751 15.9062 19.6094 15.7719 19.6094 15.6062V12.5578C19.6094 12.3921 19.4751 12.2578 19.3094 12.2578L15.3625 12.2578C15.1968 12.2578 15.0625 12.3921 15.0625 12.5578V15.6062Z" fill="url(#paint13_linear_12106_38052)" fill-opacity="0.7"/>
<path fill-rule="evenodd" clip-rule="evenodd" d="M8.21563 15.9062C8.38131 15.9062 8.51562 15.7719 8.51562 15.6062V12.5578C8.51562 12.3921 8.38131 12.2578 8.21562 12.2578L3.77656 12.2578C3.61088 12.2578 3.47656 12.1235 3.47656 11.9578V11.5578C3.47656 11.3921 3.61088 11.2578 3.77656 11.2578L8.21563 11.2578C8.38131 11.2578 8.51562 11.1235 8.51562 10.9578V7.925C8.51562 7.75931 8.64994 7.625 8.81563 7.625H9.21562C9.38131 7.625 9.51562 7.75931 9.51562 7.925V10.9578C9.51562 11.1235 9.64994 11.2578 9.81563 11.2578L13.7625 11.2578C13.9282 11.2578 14.0625 11.1235 14.0625 10.9578V7.925C14.0625 7.75931 14.1968 7.625 14.3625 7.625H14.7625C14.9282 7.625 15.0625 7.75931 15.0625 7.925V10.9578C15.0625 11.1235 15.1968 11.2578 15.3625 11.2578L19.3094 11.2578C19.4751 11.2578 19.6094 11.1235 19.6094 10.9578V7.925C19.6094 7.75931 19.7437 7.625 19.9094 7.625H20.3094C20.4751 7.625 20.6094 7.75931 20.6094 7.925V10.9578C20.6094 11.1235 20.7437 11.2578 20.9094 11.2578L25.3094 11.2578C25.4751 11.2578 25.6094 11.3921 25.6094 11.5578V11.9578C25.6094 12.1235 25.4751 12.2578 25.3094 12.2578L20.9094 12.2578C20.7437 12.2578 20.6094 12.3921 20.6094 12.5578V15.6062C20.6094 15.7719 20.7437 15.9062 20.9094 15.9062L25.3094 15.9062C25.4751 15.9062 25.6094 16.0406 25.6094 16.2062V16.6062C25.6094 16.7719 25.4751 16.9062 25.3094 16.9062L20.9094 16.9062C20.7437 16.9062 20.6094 17.0406 20.6094 17.2062V21.1875C20.6094 21.3532 20.4751 21.4875 20.3094 21.4875H19.9094C19.7437 21.4875 19.6094 21.3532 19.6094 21.1875V17.2062C19.6094 17.0406 19.4751 16.9062 19.3094 16.9062L15.3625 16.9062C15.1968 16.9062 15.0625 17.0406 15.0625 17.2062V20.3562C15.0625 20.5219 14.9282 20.6562 14.7625 20.6562H14.3625C14.1968 20.6562 14.0625 20.5219 14.0625 20.3562V17.2062C14.0625 17.0406 13.9282 16.9062 13.7625 16.9062L9.81563 16.9062C9.64994 16.9062 9.51562 17.0406 9.51562 17.2062V20.3562C9.51562 20.5219 9.38131 20.6562 9.21562 20.6562H8.81563C8.64994 20.6562 8.51562 20.5219 8.51562 20.3562V17.2062C8.51562 17.0406 8.38131 16.9062 8.21562 16.9062L3.77656 16.9062C3.61088 16.9062 3.47656 16.7719 3.47656 16.6062V16.2063C3.47656 16.0406 3.61088 15.9062 3.77656 15.9062L8.21563 15.9062ZM9.51562 15.6062C9.51562 15.7719 9.64994 15.9062 9.81563 15.9062L13.7625 15.9062C13.9282 15.9062 14.0625 15.7719 14.0625 15.6062V12.5578C14.0625 12.3921 13.9282 12.2578 13.7625 12.2578L9.81562 12.2578C9.64994 12.2578 9.51562 12.3921 9.51562 12.5578V15.6062ZM15.0625 15.6062C15.0625 15.7719 15.1968 15.9062 15.3625 15.9062L19.3094 15.9062C19.4751 15.9062 19.6094 15.7719 19.6094 15.6062V12.5578C19.6094 12.3921 19.4751 12.2578 19.3094 12.2578L15.3625 12.2578C15.1968 12.2578 15.0625 12.3921 15.0625 12.5578V15.6062Z" fill="url(#paint14_linear_12106_38052)" fill-opacity="0.7"/>
<path fill-rule="evenodd" clip-rule="evenodd" d="M8.21563 15.9062C8.38131 15.9062 8.51562 15.7719 8.51562 15.6062V12.5578C8.51562 12.3921 8.38131 12.2578 8.21562 12.2578L3.77656 12.2578C3.61088 12.2578 3.47656 12.1235 3.47656 11.9578V11.5578C3.47656 11.3921 3.61088 11.2578 3.77656 11.2578L8.21563 11.2578C8.38131 11.2578 8.51562 11.1235 8.51562 10.9578V7.925C8.51562 7.75931 8.64994 7.625 8.81563 7.625H9.21562C9.38131 7.625 9.51562 7.75931 9.51562 7.925V10.9578C9.51562 11.1235 9.64994 11.2578 9.81563 11.2578L13.7625 11.2578C13.9282 11.2578 14.0625 11.1235 14.0625 10.9578V7.925C14.0625 7.75931 14.1968 7.625 14.3625 7.625H14.7625C14.9282 7.625 15.0625 7.75931 15.0625 7.925V10.9578C15.0625 11.1235 15.1968 11.2578 15.3625 11.2578L19.3094 11.2578C19.4751 11.2578 19.6094 11.1235 19.6094 10.9578V7.925C19.6094 7.75931 19.7437 7.625 19.9094 7.625H20.3094C20.4751 7.625 20.6094 7.75931 20.6094 7.925V10.9578C20.6094 11.1235 20.7437 11.2578 20.9094 11.2578L25.3094 11.2578C25.4751 11.2578 25.6094 11.3921 25.6094 11.5578V11.9578C25.6094 12.1235 25.4751 12.2578 25.3094 12.2578L20.9094 12.2578C20.7437 12.2578 20.6094 12.3921 20.6094 12.5578V15.6062C20.6094 15.7719 20.7437 15.9062 20.9094 15.9062L25.3094 15.9062C25.4751 15.9062 25.6094 16.0406 25.6094 16.2062V16.6062C25.6094 16.7719 25.4751 16.9062 25.3094 16.9062L20.9094 16.9062C20.7437 16.9062 20.6094 17.0406 20.6094 17.2062V21.1875C20.6094 21.3532 20.4751 21.4875 20.3094 21.4875H19.9094C19.7437 21.4875 19.6094 21.3532 19.6094 21.1875V17.2062C19.6094 17.0406 19.4751 16.9062 19.3094 16.9062L15.3625 16.9062C15.1968 16.9062 15.0625 17.0406 15.0625 17.2062V20.3562C15.0625 20.5219 14.9282 20.6562 14.7625 20.6562H14.3625C14.1968 20.6562 14.0625 20.5219 14.0625 20.3562V17.2062C14.0625 17.0406 13.9282 16.9062 13.7625 16.9062L9.81563 16.9062C9.64994 16.9062 9.51562 17.0406 9.51562 17.2062V20.3562C9.51562 20.5219 9.38131 20.6562 9.21562 20.6562H8.81563C8.64994 20.6562 8.51562 20.5219 8.51562 20.3562V17.2062C8.51562 17.0406 8.38131 16.9062 8.21562 16.9062L3.77656 16.9062C3.61088 16.9062 3.47656 16.7719 3.47656 16.6062V16.2063C3.47656 16.0406 3.61088 15.9062 3.77656 15.9062L8.21563 15.9062ZM9.51562 15.6062C9.51562 15.7719 9.64994 15.9062 9.81563 15.9062L13.7625 15.9062C13.9282 15.9062 14.0625 15.7719 14.0625 15.6062V12.5578C14.0625 12.3921 13.9282 12.2578 13.7625 12.2578L9.81562 12.2578C9.64994 12.2578 9.51562 12.3921 9.51562 12.5578V15.6062ZM15.0625 15.6062C15.0625 15.7719 15.1968 15.9062 15.3625 15.9062L19.3094 15.9062C19.4751 15.9062 19.6094 15.7719 19.6094 15.6062V12.5578C19.6094 12.3921 19.4751 12.2578 19.3094 12.2578L15.3625 12.2578C15.1968 12.2578 15.0625 12.3921 15.0625 12.5578V15.6062Z" fill="url(#paint15_linear_12106_38052)" fill-opacity="0.7"/>
<path fill-rule="evenodd" clip-rule="evenodd" d="M8.21563 15.9062C8.38131 15.9062 8.51562 15.7719 8.51562 15.6062V12.5578C8.51562 12.3921 8.38131 12.2578 8.21562 12.2578L3.77656 12.2578C3.61088 12.2578 3.47656 12.1235 3.47656 11.9578V11.5578C3.47656 11.3921 3.61088 11.2578 3.77656 11.2578L8.21563 11.2578C8.38131 11.2578 8.51562 11.1235 8.51562 10.9578V7.925C8.51562 7.75931 8.64994 7.625 8.81563 7.625H9.21562C9.38131 7.625 9.51562 7.75931 9.51562 7.925V10.9578C9.51562 11.1235 9.64994 11.2578 9.81563 11.2578L13.7625 11.2578C13.9282 11.2578 14.0625 11.1235 14.0625 10.9578V7.925C14.0625 7.75931 14.1968 7.625 14.3625 7.625H14.7625C14.9282 7.625 15.0625 7.75931 15.0625 7.925V10.9578C15.0625 11.1235 15.1968 11.2578 15.3625 11.2578L19.3094 11.2578C19.4751 11.2578 19.6094 11.1235 19.6094 10.9578V7.925C19.6094 7.75931 19.7437 7.625 19.9094 7.625H20.3094C20.4751 7.625 20.6094 7.75931 20.6094 7.925V10.9578C20.6094 11.1235 20.7437 11.2578 20.9094 11.2578L25.3094 11.2578C25.4751 11.2578 25.6094 11.3921 25.6094 11.5578V11.9578C25.6094 12.1235 25.4751 12.2578 25.3094 12.2578L20.9094 12.2578C20.7437 12.2578 20.6094 12.3921 20.6094 12.5578V15.6062C20.6094 15.7719 20.7437 15.9062 20.9094 15.9062L25.3094 15.9062C25.4751 15.9062 25.6094 16.0406 25.6094 16.2062V16.6062C25.6094 16.7719 25.4751 16.9062 25.3094 16.9062L20.9094 16.9062C20.7437 16.9062 20.6094 17.0406 20.6094 17.2062V21.1875C20.6094 21.3532 20.4751 21.4875 20.3094 21.4875H19.9094C19.7437 21.4875 19.6094 21.3532 19.6094 21.1875V17.2062C19.6094 17.0406 19.4751 16.9062 19.3094 16.9062L15.3625 16.9062C15.1968 16.9062 15.0625 17.0406 15.0625 17.2062V20.3562C15.0625 20.5219 14.9282 20.6562 14.7625 20.6562H14.3625C14.1968 20.6562 14.0625 20.5219 14.0625 20.3562V17.2062C14.0625 17.0406 13.9282 16.9062 13.7625 16.9062L9.81563 16.9062C9.64994 16.9062 9.51562 17.0406 9.51562 17.2062V20.3562C9.51562 20.5219 9.38131 20.6562 9.21562 20.6562H8.81563C8.64994 20.6562 8.51562 20.5219 8.51562 20.3562V17.2062C8.51562 17.0406 8.38131 16.9062 8.21562 16.9062L3.77656 16.9062C3.61088 16.9062 3.47656 16.7719 3.47656 16.6062V16.2063C3.47656 16.0406 3.61088 15.9062 3.77656 15.9062L8.21563 15.9062ZM9.51562 15.6062C9.51562 15.7719 9.64994 15.9062 9.81563 15.9062L13.7625 15.9062C13.9282 15.9062 14.0625 15.7719 14.0625 15.6062V12.5578C14.0625 12.3921 13.9282 12.2578 13.7625 12.2578L9.81562 12.2578C9.64994 12.2578 9.51562 12.3921 9.51562 12.5578V15.6062ZM15.0625 15.6062C15.0625 15.7719 15.1968 15.9062 15.3625 15.9062L19.3094 15.9062C19.4751 15.9062 19.6094 15.7719 19.6094 15.6062V12.5578C19.6094 12.3921 19.4751 12.2578 19.3094 12.2578L15.3625 12.2578C15.1968 12.2578 15.0625 12.3921 15.0625 12.5578V15.6062Z" fill="url(#paint16_linear_12106_38052)" fill-opacity="0.7"/>
<path fill-rule="evenodd" clip-rule="evenodd" d="M8.21563 15.9062C8.38131 15.9062 8.51562 15.7719 8.51562 15.6062V12.5578C8.51562 12.3921 8.38131 12.2578 8.21562 12.2578L3.77656 12.2578C3.61088 12.2578 3.47656 12.1235 3.47656 11.9578V11.5578C3.47656 11.3921 3.61088 11.2578 3.77656 11.2578L8.21563 11.2578C8.38131 11.2578 8.51562 11.1235 8.51562 10.9578V7.925C8.51562 7.75931 8.64994 7.625 8.81563 7.625H9.21562C9.38131 7.625 9.51562 7.75931 9.51562 7.925V10.9578C9.51562 11.1235 9.64994 11.2578 9.81563 11.2578L13.7625 11.2578C13.9282 11.2578 14.0625 11.1235 14.0625 10.9578V7.925C14.0625 7.75931 14.1968 7.625 14.3625 7.625H14.7625C14.9282 7.625 15.0625 7.75931 15.0625 7.925V10.9578C15.0625 11.1235 15.1968 11.2578 15.3625 11.2578L19.3094 11.2578C19.4751 11.2578 19.6094 11.1235 19.6094 10.9578V7.925C19.6094 7.75931 19.7437 7.625 19.9094 7.625H20.3094C20.4751 7.625 20.6094 7.75931 20.6094 7.925V10.9578C20.6094 11.1235 20.7437 11.2578 20.9094 11.2578L25.3094 11.2578C25.4751 11.2578 25.6094 11.3921 25.6094 11.5578V11.9578C25.6094 12.1235 25.4751 12.2578 25.3094 12.2578L20.9094 12.2578C20.7437 12.2578 20.6094 12.3921 20.6094 12.5578V15.6062C20.6094 15.7719 20.7437 15.9062 20.9094 15.9062L25.3094 15.9062C25.4751 15.9062 25.6094 16.0406 25.6094 16.2062V16.6062C25.6094 16.7719 25.4751 16.9062 25.3094 16.9062L20.9094 16.9062C20.7437 16.9062 20.6094 17.0406 20.6094 17.2062V21.1875C20.6094 21.3532 20.4751 21.4875 20.3094 21.4875H19.9094C19.7437 21.4875 19.6094 21.3532 19.6094 21.1875V17.2062C19.6094 17.0406 19.4751 16.9062 19.3094 16.9062L15.3625 16.9062C15.1968 16.9062 15.0625 17.0406 15.0625 17.2062V20.3562C15.0625 20.5219 14.9282 20.6562 14.7625 20.6562H14.3625C14.1968 20.6562 14.0625 20.5219 14.0625 20.3562V17.2062C14.0625 17.0406 13.9282 16.9062 13.7625 16.9062L9.81563 16.9062C9.64994 16.9062 9.51562 17.0406 9.51562 17.2062V20.3562C9.51562 20.5219 9.38131 20.6562 9.21562 20.6562H8.81563C8.64994 20.6562 8.51562 20.5219 8.51562 20.3562V17.2062C8.51562 17.0406 8.38131 16.9062 8.21562 16.9062L3.77656 16.9062C3.61088 16.9062 3.47656 16.7719 3.47656 16.6062V16.2063C3.47656 16.0406 3.61088 15.9062 3.77656 15.9062L8.21563 15.9062ZM9.51562 15.6062C9.51562 15.7719 9.64994 15.9062 9.81563 15.9062L13.7625 15.9062C13.9282 15.9062 14.0625 15.7719 14.0625 15.6062V12.5578C14.0625 12.3921 13.9282 12.2578 13.7625 12.2578L9.81562 12.2578C9.64994 12.2578 9.51562 12.3921 9.51562 12.5578V15.6062ZM15.0625 15.6062C15.0625 15.7719 15.1968 15.9062 15.3625 15.9062L19.3094 15.9062C19.4751 15.9062 19.6094 15.7719 19.6094 15.6062V12.5578C19.6094 12.3921 19.4751 12.2578 19.3094 12.2578L15.3625 12.2578C15.1968 12.2578 15.0625 12.3921 15.0625 12.5578V15.6062Z" fill="url(#paint17_radial_12106_38052)"/>
<circle cx="23.8672" cy="28.4609" r="1.46875" fill="#4381C4"/>
<circle cx="23.8672" cy="28.4609" r="1.46875" fill="url(#paint18_radial_12106_38052)"/>
<circle cx="23.8672" cy="28.4609" r="1.46875" fill="url(#paint19_radial_12106_38052)"/>
<circle cx="23.8672" cy="28.4609" r="1.46875" fill="url(#paint20_radial_12106_38052)"/>
<circle cx="23.8672" cy="28.4609" r="1.03906" fill="#4880CB"/>
<circle cx="23.8672" cy="28.4609" r="1.03906" fill="url(#paint21_radial_12106_38052)"/>
<circle cx="23.8672" cy="28.4609" r="1.03906" fill="url(#paint22_radial_12106_38052)"/>
<path fill-rule="evenodd" clip-rule="evenodd" d="M24.0629 6.10645C19.5473 6.10444 11.8671 6.10102 5.74859 6.10456C3.87079 6.10566 2.38702 7.69435 2.51117 9.56812L3.04071 17.5606C3.18829 19.7876 4.94586 21.57 7.17059 21.7487L23.1413 23.0314L27.4382 6.10768C26.8355 6.10768 25.6429 6.10713 24.0629 6.10645ZM22.2275 8.04139L21.6732 8.04115C18.0657 8.03944 11.4399 8.03626 5.80169 8.04078C5.0534 8.04133 4.46063 8.67219 4.50592 9.41914L4.99371 17.4769C5.06927 18.7253 6.11786 19.7423 7.56317 19.8361L19.8199 20.753C20.4028 20.7965 20.9322 20.4137 21.0735 19.8466L23.5828 9.78071C23.803 8.89729 23.1379 8.04182 22.2275 8.04139Z" fill="#C0BFC1"/>
<path fill-rule="evenodd" clip-rule="evenodd" d="M24.0629 6.10645C19.5473 6.10444 11.8671 6.10102 5.74859 6.10456C3.87079 6.10566 2.38702 7.69435 2.51117 9.56812L3.04071 17.5606C3.18829 19.7876 4.94586 21.57 7.17059 21.7487L23.1413 23.0314L27.4382 6.10768C26.8355 6.10768 25.6429 6.10713 24.0629 6.10645ZM22.2275 8.04139L21.6732 8.04115C18.0657 8.03944 11.4399 8.03626 5.80169 8.04078C5.0534 8.04133 4.46063 8.67219 4.50592 9.41914L4.99371 17.4769C5.06927 18.7253 6.11786 19.7423 7.56317 19.8361L19.8199 20.753C20.4028 20.7965 20.9322 20.4137 21.0735 19.8466L23.5828 9.78071C23.803 8.89729 23.1379 8.04182 22.2275 8.04139Z" fill="url(#paint23_linear_12106_38052)"/>
<path fill-rule="evenodd" clip-rule="evenodd" d="M24.0629 6.10645C19.5473 6.10444 11.8671 6.10102 5.74859 6.10456C3.87079 6.10566 2.38702 7.69435 2.51117 9.56812L3.04071 17.5606C3.18829 19.7876 4.94586 21.57 7.17059 21.7487L23.1413 23.0314L27.4382 6.10768C26.8355 6.10768 25.6429 6.10713 24.0629 6.10645ZM22.2275 8.04139L21.6732 8.04115C18.0657 8.03944 11.4399 8.03626 5.80169 8.04078C5.0534 8.04133 4.46063 8.67219 4.50592 9.41914L4.99371 17.4769C5.06927 18.7253 6.11786 19.7423 7.56317 19.8361L19.8199 20.753C20.4028 20.7965 20.9322 20.4137 21.0735 19.8466L23.5828 9.78071C23.803 8.89729 23.1379 8.04182 22.2275 8.04139Z" fill="url(#paint24_radial_12106_38052)"/>
<path fill-rule="evenodd" clip-rule="evenodd" d="M24.0629 6.10645C19.5473 6.10444 11.8671 6.10102 5.74859 6.10456C3.87079 6.10566 2.38702 7.69435 2.51117 9.56812L3.04071 17.5606C3.18829 19.7876 4.94586 21.57 7.17059 21.7487L23.1413 23.0314L27.4382 6.10768C26.8355 6.10768 25.6429 6.10713 24.0629 6.10645ZM22.2275 8.04139L21.6732 8.04115C18.0657 8.03944 11.4399 8.03626 5.80169 8.04078C5.0534 8.04133 4.46063 8.67219 4.50592 9.41914L4.99371 17.4769C5.06927 18.7253 6.11786 19.7423 7.56317 19.8361L19.8199 20.753C20.4028 20.7965 20.9322 20.4137 21.0735 19.8466L23.5828 9.78071C23.803 8.89729 23.1379 8.04182 22.2275 8.04139Z" fill="url(#paint25_linear_12106_38052)"/>
<path fill-rule="evenodd" clip-rule="evenodd" d="M24.0629 6.10645C19.5473 6.10444 11.8671 6.10102 5.74859 6.10456C3.87079 6.10566 2.38702 7.69435 2.51117 9.56812L3.04071 17.5606C3.18829 19.7876 4.94586 21.57 7.17059 21.7487L23.1413 23.0314L27.4382 6.10768C26.8355 6.10768 25.6429 6.10713 24.0629 6.10645ZM22.2275 8.04139L21.6732 8.04115C18.0657 8.03944 11.4399 8.03626 5.80169 8.04078C5.0534 8.04133 4.46063 8.67219 4.50592 9.41914L4.99371 17.4769C5.06927 18.7253 6.11786 19.7423 7.56317 19.8361L19.8199 20.753C20.4028 20.7965 20.9322 20.4137 21.0735 19.8466L23.5828 9.78071C23.803 8.89729 23.1379 8.04182 22.2275 8.04139Z" fill="url(#paint26_linear_12106_38052)"/>
<path fill-rule="evenodd" clip-rule="evenodd" d="M24.0629 6.10645C19.5473 6.10444 11.8671 6.10102 5.74859 6.10456C3.87079 6.10566 2.38702 7.69435 2.51117 9.56812L3.04071 17.5606C3.18829 19.7876 4.94586 21.57 7.17059 21.7487L23.1413 23.0314L27.4382 6.10768C26.8355 6.10768 25.6429 6.10713 24.0629 6.10645ZM22.2275 8.04139L21.6732 8.04115C18.0657 8.03944 11.4399 8.03626 5.80169 8.04078C5.0534 8.04133 4.46063 8.67219 4.50592 9.41914L4.99371 17.4769C5.06927 18.7253 6.11786 19.7423 7.56317 19.8361L19.8199 20.753C20.4028 20.7965 20.9322 20.4137 21.0735 19.8466L23.5828 9.78071C23.803 8.89729 23.1379 8.04182 22.2275 8.04139Z" fill="url(#paint27_linear_12106_38052)"/>
<path fill-rule="evenodd" clip-rule="evenodd" d="M24.0629 6.10645C19.5473 6.10444 11.8671 6.10102 5.74859 6.10456C3.87079 6.10566 2.38702 7.69435 2.51117 9.56812L3.04071 17.5606C3.18829 19.7876 4.94586 21.57 7.17059 21.7487L23.1413 23.0314L27.4382 6.10768C26.8355 6.10768 25.6429 6.10713 24.0629 6.10645ZM22.2275 8.04139L21.6732 8.04115C18.0657 8.03944 11.4399 8.03626 5.80169 8.04078C5.0534 8.04133 4.46063 8.67219 4.50592 9.41914L4.99371 17.4769C5.06927 18.7253 6.11786 19.7423 7.56317 19.8361L19.8199 20.753C20.4028 20.7965 20.9322 20.4137 21.0735 19.8466L23.5828 9.78071C23.803 8.89729 23.1379 8.04182 22.2275 8.04139Z" fill="url(#paint28_linear_12106_38052)"/>
<path fill-rule="evenodd" clip-rule="evenodd" d="M24.0629 6.10645C19.5473 6.10444 11.8671 6.10102 5.74859 6.10456C3.87079 6.10566 2.38702 7.69435 2.51117 9.56812L3.04071 17.5606C3.18829 19.7876 4.94586 21.57 7.17059 21.7487L23.1413 23.0314L27.4382 6.10768C26.8355 6.10768 25.6429 6.10713 24.0629 6.10645ZM22.2275 8.04139L21.6732 8.04115C18.0657 8.03944 11.4399 8.03626 5.80169 8.04078C5.0534 8.04133 4.46063 8.67219 4.50592 9.41914L4.99371 17.4769C5.06927 18.7253 6.11786 19.7423 7.56317 19.8361L19.8199 20.753C20.4028 20.7965 20.9322 20.4137 21.0735 19.8466L23.5828 9.78071C23.803 8.89729 23.1379 8.04182 22.2275 8.04139Z" fill="url(#paint29_radial_12106_38052)"/>
<path fill-rule="evenodd" clip-rule="evenodd" d="M24.0629 6.10645C19.5473 6.10444 11.8671 6.10102 5.74859 6.10456C3.87079 6.10566 2.38702 7.69435 2.51117 9.56812L3.04071 17.5606C3.18829 19.7876 4.94586 21.57 7.17059 21.7487L23.1413 23.0314L27.4382 6.10768C26.8355 6.10768 25.6429 6.10713 24.0629 6.10645ZM22.2275 8.04139L21.6732 8.04115C18.0657 8.03944 11.4399 8.03626 5.80169 8.04078C5.0534 8.04133 4.46063 8.67219 4.50592 9.41914L4.99371 17.4769C5.06927 18.7253 6.11786 19.7423 7.56317 19.8361L19.8199 20.753C20.4028 20.7965 20.9322 20.4137 21.0735 19.8466L23.5828 9.78071C23.803 8.89729 23.1379 8.04182 22.2275 8.04139Z" fill="url(#paint30_radial_12106_38052)"/>
<path fill-rule="evenodd" clip-rule="evenodd" d="M24.0629 6.10645C19.5473 6.10444 11.8671 6.10102 5.74859 6.10456C3.87079 6.10566 2.38702 7.69435 2.51117 9.56812L3.04071 17.5606C3.18829 19.7876 4.94586 21.57 7.17059 21.7487L23.1413 23.0314L27.4382 6.10768C26.8355 6.10768 25.6429 6.10713 24.0629 6.10645ZM22.2275 8.04139L21.6732 8.04115C18.0657 8.03944 11.4399 8.03626 5.80169 8.04078C5.0534 8.04133 4.46063 8.67219 4.50592 9.41914L4.99371 17.4769C5.06927 18.7253 6.11786 19.7423 7.56317 19.8361L19.8199 20.753C20.4028 20.7965 20.9322 20.4137 21.0735 19.8466L23.5828 9.78071C23.803 8.89729 23.1379 8.04182 22.2275 8.04139Z" fill="url(#paint31_radial_12106_38052)"/>
<path fill-rule="evenodd" clip-rule="evenodd" d="M24.0629 6.10645C19.5473 6.10444 11.8671 6.10102 5.74859 6.10456C3.87079 6.10566 2.38702 7.69435 2.51117 9.56812L3.04071 17.5606C3.18829 19.7876 4.94586 21.57 7.17059 21.7487L23.1413 23.0314L27.4382 6.10768C26.8355 6.10768 25.6429 6.10713 24.0629 6.10645ZM22.2275 8.04139L21.6732 8.04115C18.0657 8.03944 11.4399 8.03626 5.80169 8.04078C5.0534 8.04133 4.46063 8.67219 4.50592 9.41914L4.99371 17.4769C5.06927 18.7253 6.11786 19.7423 7.56317 19.8361L19.8199 20.753C20.4028 20.7965 20.9322 20.4137 21.0735 19.8466L23.5828 9.78071C23.803 8.89729 23.1379 8.04182 22.2275 8.04139Z" fill="url(#paint32_radial_12106_38052)"/>
<path fill-rule="evenodd" clip-rule="evenodd" d="M24.0629 6.10645C19.5473 6.10444 11.8671 6.10102 5.74859 6.10456C3.87079 6.10566 2.38702 7.69435 2.51117 9.56812L3.04071 17.5606C3.18829 19.7876 4.94586 21.57 7.17059 21.7487L23.1413 23.0314L27.4382 6.10768C26.8355 6.10768 25.6429 6.10713 24.0629 6.10645ZM22.2275 8.04139L21.6732 8.04115C18.0657 8.03944 11.4399 8.03626 5.80169 8.04078C5.0534 8.04133 4.46063 8.67219 4.50592 9.41914L4.99371 17.4769C5.06927 18.7253 6.11786 19.7423 7.56317 19.8361L19.8199 20.753C20.4028 20.7965 20.9322 20.4137 21.0735 19.8466L23.5828 9.78071C23.803 8.89729 23.1379 8.04182 22.2275 8.04139Z" fill="url(#paint33_radial_12106_38052)"/>
<path fill-rule="evenodd" clip-rule="evenodd" d="M24.0629 6.10645C19.5473 6.10444 11.8671 6.10102 5.74859 6.10456C3.87079 6.10566 2.38702 7.69435 2.51117 9.56812L3.04071 17.5606C3.18829 19.7876 4.94586 21.57 7.17059 21.7487L23.1413 23.0314L27.4382 6.10768C26.8355 6.10768 25.6429 6.10713 24.0629 6.10645ZM22.2275 8.04139L21.6732 8.04115C18.0657 8.03944 11.4399 8.03626 5.80169 8.04078C5.0534 8.04133 4.46063 8.67219 4.50592 9.41914L4.99371 17.4769C5.06927 18.7253 6.11786 19.7423 7.56317 19.8361L19.8199 20.753C20.4028 20.7965 20.9322 20.4137 21.0735 19.8466L23.5828 9.78071C23.803 8.89729 23.1379 8.04182 22.2275 8.04139Z" fill="url(#paint34_radial_12106_38052)"/>
<path fill-rule="evenodd" clip-rule="evenodd" d="M24.0629 6.10645C19.5473 6.10444 11.8671 6.10102 5.74859 6.10456C3.87079 6.10566 2.38702 7.69435 2.51117 9.56812L3.04071 17.5606C3.18829 19.7876 4.94586 21.57 7.17059 21.7487L23.1413 23.0314L27.4382 6.10768C26.8355 6.10768 25.6429 6.10713 24.0629 6.10645ZM22.2275 8.04139L21.6732 8.04115C18.0657 8.03944 11.4399 8.03626 5.80169 8.04078C5.0534 8.04133 4.46063 8.67219 4.50592 9.41914L4.99371 17.4769C5.06927 18.7253 6.11786 19.7423 7.56317 19.8361L19.8199 20.753C20.4028 20.7965 20.9322 20.4137 21.0735 19.8466L23.5828 9.78071C23.803 8.89729 23.1379 8.04182 22.2275 8.04139Z" fill="url(#paint35_radial_12106_38052)"/>
<path fill-rule="evenodd" clip-rule="evenodd" d="M24.0629 6.10645C19.5473 6.10444 11.8671 6.10102 5.74859 6.10456C3.87079 6.10566 2.38702 7.69435 2.51117 9.56812L3.04071 17.5606C3.18829 19.7876 4.94586 21.57 7.17059 21.7487L23.1413 23.0314L27.4382 6.10768C26.8355 6.10768 25.6429 6.10713 24.0629 6.10645ZM22.2275 8.04139L21.6732 8.04115C18.0657 8.03944 11.4399 8.03626 5.80169 8.04078C5.0534 8.04133 4.46063 8.67219 4.50592 9.41914L4.99371 17.4769C5.06927 18.7253 6.11786 19.7423 7.56317 19.8361L19.8199 20.753C20.4028 20.7965 20.9322 20.4137 21.0735 19.8466L23.5828 9.78071C23.803 8.89729 23.1379 8.04182 22.2275 8.04139Z" fill="url(#paint36_radial_12106_38052)"/>
<path fill-rule="evenodd" clip-rule="evenodd" d="M28.1303 3.6072C28.6665 3.73942 28.994 4.28131 28.8618 4.81753L24.3462 23.13C24.2139 23.6663 23.672 23.9938 23.1358 23.8615C22.5996 23.7293 22.2721 23.1874 22.4043 22.6512L26.9199 4.3387C27.0522 3.80248 27.5941 3.47497 28.1303 3.6072Z" fill="url(#paint37_linear_12106_38052)"/>
<path fill-rule="evenodd" clip-rule="evenodd" d="M28.1303 3.6072C28.6665 3.73942 28.994 4.28131 28.8618 4.81753L24.3462 23.13C24.2139 23.6663 23.672 23.9938 23.1358 23.8615C22.5996 23.7293 22.2721 23.1874 22.4043 22.6512L26.9199 4.3387C27.0522 3.80248 27.5941 3.47497 28.1303 3.6072Z" fill="url(#paint38_radial_12106_38052)"/>
<path fill-rule="evenodd" clip-rule="evenodd" d="M28.1303 3.6072C28.6665 3.73942 28.994 4.28131 28.8618 4.81753L24.3462 23.13C24.2139 23.6663 23.672 23.9938 23.1358 23.8615C22.5996 23.7293 22.2721 23.1874 22.4043 22.6512L26.9199 4.3387C27.0522 3.80248 27.5941 3.47497 28.1303 3.6072Z" fill="url(#paint39_radial_12106_38052)"/>
<path d="M26.5508 4.10156C26.5508 3.56222 26.988 3.125 27.5273 3.125H29.4414C29.9807 3.125 30.418 3.56222 30.418 4.10156C30.418 4.6409 29.9807 5.07812 29.4414 5.07812H27.5273C26.988 5.07812 26.5508 4.6409 26.5508 4.10156Z" fill="#347CC3"/>
<path d="M26.5508 4.10156C26.5508 3.56222 26.988 3.125 27.5273 3.125H29.4414C29.9807 3.125 30.418 3.56222 30.418 4.10156C30.418 4.6409 29.9807 5.07812 29.4414 5.07812H27.5273C26.988 5.07812 26.5508 4.6409 26.5508 4.10156Z" fill="url(#paint40_linear_12106_38052)"/>
<path d="M26.5508 4.10156C26.5508 3.56222 26.988 3.125 27.5273 3.125H29.4414C29.9807 3.125 30.418 3.56222 30.418 4.10156C30.418 4.6409 29.9807 5.07812 29.4414 5.07812H27.5273C26.988 5.07812 26.5508 4.6409 26.5508 4.10156Z" fill="url(#paint41_radial_12106_38052)"/>
<path d="M26.5508 4.10156C26.5508 3.56222 26.988 3.125 27.5273 3.125H29.4414C29.9807 3.125 30.418 3.56222 30.418 4.10156C30.418 4.6409 29.9807 5.07812 29.4414 5.07812H27.5273C26.988 5.07812 26.5508 4.6409 26.5508 4.10156Z" fill="url(#paint42_radial_12106_38052)"/>
<defs>
<linearGradient id="paint0_linear_12106_38052" x1="13.1914" y1="25.0312" x2="13.1914" y2="27.0312" gradientUnits="userSpaceOnUse">
<stop stop-color="#A5A2A7"/>
<stop offset="0.307292" stop-color="#D1CDD6"/>
<stop offset="1" stop-color="#9B82B4"/>
</linearGradient>
<radialGradient id="paint1_radial_12106_38052" cx="0" cy="0" r="1" gradientUnits="userSpaceOnUse" gradientTransform="translate(24.0742 25.7805) rotate(90) scale(1.03764 10.1949)">
<stop stop-color="#D5D2DA"/>
<stop offset="0.949073" stop-color="#D5D2DA" stop-opacity="0"/>
</radialGradient>
<radialGradient id="paint2_radial_12106_38052" cx="0" cy="0" r="1" gradientUnits="userSpaceOnUse" gradientTransform="translate(25.1652 21.5854) rotate(175.275) scale(7.49856 8.06002)">
<stop offset="0.379421" stop-color="#A5A2A7"/>
<stop offset="0.468013" stop-color="#C2BEC7"/>
<stop offset="0.6633" stop-color="#9B82B4"/>
</radialGradient>
<radialGradient id="paint3_radial_12106_38052" cx="0" cy="0" r="1" gradientUnits="userSpaceOnUse" gradientTransform="translate(24.6717 22.2031) rotate(-180) scale(6.97957 7.50217)">
<stop offset="0.379421" stop-color="#A5A2A7"/>
<stop offset="0.468013" stop-color="#C2BEC7"/>
<stop offset="0.6633" stop-color="#9B82B4"/>
</radialGradient>
<radialGradient id="paint4_radial_12106_38052" cx="0" cy="0" r="1" gradientUnits="userSpaceOnUse" gradientTransform="translate(24.5148 21.0428) rotate(-12.2648) scale(5.51865 3.87335)">
<stop stop-color="#D8D5DB" stop-opacity="0"/>
<stop offset="0.837786" stop-color="#EEEEEE"/>
<stop offset="1" stop-color="#D8D5DB" stop-opacity="0"/>
</radialGradient>
<radialGradient id="paint5_radial_12106_38052" cx="0" cy="0" r="1" gradientUnits="userSpaceOnUse" gradientTransform="translate(25.7233 21.899) rotate(179.057) scale(3.14605 4.2212)">
<stop offset="0.510701" stop-color="#9C94A4"/>
<stop offset="1" stop-color="#9C94A4" stop-opacity="0"/>
</radialGradient>
<radialGradient id="paint6_radial_12106_38052" cx="0" cy="0" r="1" gradientUnits="userSpaceOnUse" gradientTransform="translate(22.441 23.4205) rotate(-21.6149) scale(7.17243 7.1565)">
<stop offset="0.796374" stop-color="#C9C9CB" stop-opacity="0"/>
<stop offset="1" stop-color="#CAC9CB"/>
</radialGradient>
<radialGradient id="paint7_radial_12106_38052" cx="0" cy="0" r="1" gradientUnits="userSpaceOnUse" gradientTransform="translate(24.8391 21.6321) rotate(-174.703) scale(5.45604 6.26435)">
<stop offset="0.548148" stop-color="#D5D2DA" stop-opacity="0"/>
<stop offset="0.688889" stop-color="#D5D2DA"/>
<stop offset="0.844445" stop-color="#D5D2DA" stop-opacity="0"/>
</radialGradient>
<radialGradient id="paint8_radial_12106_38052" cx="0" cy="0" r="1" gradientUnits="userSpaceOnUse" gradientTransform="translate(6.82813 27.8125) rotate(116.878) scale(2.55754)">
<stop offset="0.485518" stop-color="#2C55AC" stop-opacity="0"/>
<stop offset="1" stop-color="#2C55AC"/>
</radialGradient>
<radialGradient id="paint9_radial_12106_38052" cx="0" cy="0" r="1" gradientUnits="userSpaceOnUse" gradientTransform="translate(6.69531 28.2109) rotate(145.421) scale(0.977344 1.38313)">
<stop offset="0.613604" stop-color="#6A99DB"/>
<stop offset="1" stop-color="#6A99DB" stop-opacity="0"/>
</radialGradient>
<radialGradient id="paint10_radial_12106_38052" cx="0" cy="0" r="1" gradientUnits="userSpaceOnUse" gradientTransform="translate(6.32812 29.1562) rotate(-116.108) scale(2.62746 3.16542)">
<stop offset="0.6568" stop-color="#2F5086" stop-opacity="0"/>
<stop offset="0.890667" stop-color="#2F5086"/>
</radialGradient>
<radialGradient id="paint11_radial_12106_38052" cx="0" cy="0" r="1" gradientUnits="userSpaceOnUse" gradientTransform="translate(5.97656 28.4609) rotate(-3.54248) scale(1.04105)">
<stop offset="0.717556" stop-color="#6B9ADC" stop-opacity="0"/>
<stop offset="1" stop-color="#6998DA"/>
</radialGradient>
<radialGradient id="paint12_radial_12106_38052" cx="0" cy="0" r="1" gradientUnits="userSpaceOnUse" gradientTransform="translate(6.29409 28.395) rotate(148.116) scale(1.42621)">
<stop offset="0.717556" stop-color="#305DB0" stop-opacity="0"/>
<stop offset="1" stop-color="#305DB0"/>
</radialGradient>
<linearGradient id="paint13_linear_12106_38052" x1="25.7974" y1="14.5563" x2="11.0596" y2="14.5563" gradientUnits="userSpaceOnUse">
<stop offset="0.73834" stop-color="#C7C4CA" stop-opacity="0"/>
<stop offset="0.751729" stop-color="#C5C3C8"/>
<stop offset="0.760337" stop-color="#C5C3C8"/>
<stop offset="0.776595" stop-color="#C7C4CA" stop-opacity="0"/>
</linearGradient>
<linearGradient id="paint14_linear_12106_38052" x1="25.7974" y1="14.5563" x2="11.0596" y2="14.5563" gradientUnits="userSpaceOnUse">
<stop offset="0.3557" stop-color="#C7C4CA" stop-opacity="0"/>
<stop offset="0.37145" stop-color="#C5C3C8"/>
<stop offset="0.376741" stop-color="#C5C3C8"/>
<stop offset="0.396338" stop-color="#C7C4CA" stop-opacity="0"/>
</linearGradient>
<linearGradient id="paint15_linear_12106_38052" x1="24.0638" y1="14.5563" x2="4.24354" y2="14.5563" gradientUnits="userSpaceOnUse">
<stop offset="0.74483" stop-color="#C7C4CA" stop-opacity="0"/>
<stop offset="0.754918" stop-color="#C5C3C8"/>
<stop offset="0.76042" stop-color="#C5C3C8"/>
<stop offset="0.77173" stop-color="#C7C4CA" stop-opacity="0"/>
</linearGradient>
<linearGradient id="paint16_linear_12106_38052" x1="12.5391" y1="11.2578" x2="12.5398" y2="12.264" gradientUnits="userSpaceOnUse">
<stop offset="0.109541" stop-color="#C7C4CA" stop-opacity="0"/>
<stop offset="0.258466" stop-color="#C5C3C8"/>
<stop offset="0.415357" stop-color="#C5C3C8"/>
<stop offset="0.627072" stop-color="#C7C4CA" stop-opacity="0"/>
</linearGradient>
<radialGradient id="paint17_radial_12106_38052" cx="0" cy="0" r="1" gradientUnits="userSpaceOnUse" gradientTransform="translate(10.6124 16.2553) scale(15.624 0.303646)">
<stop offset="0.24617" stop-color="#C5C3C8"/>
<stop offset="0.885662" stop-color="#C7C4CA" stop-opacity="0"/>
</radialGradient>
<radialGradient id="paint18_radial_12106_38052" cx="0" cy="0" r="1" gradientUnits="userSpaceOnUse" gradientTransform="translate(24.7188 27.8125) rotate(116.878) scale(2.55754)">
<stop offset="0.485518" stop-color="#2C55AC" stop-opacity="0"/>
<stop offset="1" stop-color="#2C55AC"/>
</radialGradient>
<radialGradient id="paint19_radial_12106_38052" cx="0" cy="0" r="1" gradientUnits="userSpaceOnUse" gradientTransform="translate(24.4531 27.9844) rotate(130.696) scale(1.03042 1.45824)">
<stop offset="0.420556" stop-color="#6A99DB"/>
<stop offset="1" stop-color="#6A99DB" stop-opacity="0"/>
</radialGradient>
<radialGradient id="paint20_radial_12106_38052" cx="0" cy="0" r="1" gradientUnits="userSpaceOnUse" gradientTransform="translate(24.2187 29.1562) rotate(-116.108) scale(2.62746 3.16542)">
<stop offset="0.6568" stop-color="#2F5086" stop-opacity="0"/>
<stop offset="0.890667" stop-color="#2F5086"/>
</radialGradient>
<radialGradient id="paint21_radial_12106_38052" cx="0" cy="0" r="1" gradientUnits="userSpaceOnUse" gradientTransform="translate(23.8672 28.4609) rotate(-3.54248) scale(1.04105)">
<stop offset="0.717556" stop-color="#6B9ADC" stop-opacity="0"/>
<stop offset="1" stop-color="#6998DA"/>
</radialGradient>
<radialGradient id="paint22_radial_12106_38052" cx="0" cy="0" r="1" gradientUnits="userSpaceOnUse" gradientTransform="translate(24.1847 28.395) rotate(148.116) scale(1.42621)">
<stop offset="0.717556" stop-color="#305DB0" stop-opacity="0"/>
<stop offset="1" stop-color="#305DB0"/>
</radialGradient>
<linearGradient id="paint23_linear_12106_38052" x1="25.7037" y1="17.2814" x2="21.3287" y2="16.2814" gradientUnits="userSpaceOnUse">
<stop offset="0.213508" stop-color="#9A979D"/>
<stop offset="1" stop-color="#9A979D" stop-opacity="0"/>
</linearGradient>
<radialGradient id="paint24_radial_12106_38052" cx="0" cy="0" r="1" gradientUnits="userSpaceOnUse" gradientTransform="translate(27.4381 6.28137) rotate(-180) scale(3.92187 1.60898)">
<stop stop-color="#969698"/>
<stop offset="1" stop-color="#969698" stop-opacity="0"/>
</radialGradient>
<linearGradient id="paint25_linear_12106_38052" x1="14.971" y1="6.10303" x2="14.971" y2="7.1396" gradientUnits="userSpaceOnUse">
<stop stop-color="#9A999B"/>
<stop offset="1" stop-color="#9A999B" stop-opacity="0"/>
</linearGradient>
<linearGradient id="paint26_linear_12106_38052" x1="2.88826" y1="13.782" x2="3.77083" y2="13.6891" gradientUnits="userSpaceOnUse">
<stop stop-color="#AAA7AD"/>
<stop offset="1" stop-color="#AAA7AD" stop-opacity="0"/>
</linearGradient>
<linearGradient id="paint27_linear_12106_38052" x1="14.971" y1="6.10303" x2="14.0829" y2="23.0314" gradientUnits="userSpaceOnUse">
<stop offset="0.854238" stop-color="#9387A1" stop-opacity="0"/>
<stop offset="1" stop-color="#9387A1"/>
</linearGradient>
<linearGradient id="paint28_linear_12106_38052" x1="25.5098" y1="11.5989" x2="24.2556" y2="11.2273" gradientUnits="userSpaceOnUse">
<stop stop-color="#A19EA4"/>
<stop offset="1" stop-color="#A19EA4" stop-opacity="0"/>
</linearGradient>
<radialGradient id="paint29_radial_12106_38052" cx="0" cy="0" r="1" gradientUnits="userSpaceOnUse" gradientTransform="translate(14.971 8.11506) rotate(-180) scale(9.97052 0.922983)">
<stop stop-color="#8F839B"/>
<stop offset="1" stop-color="#8F839B" stop-opacity="0"/>
</radialGradient>
<radialGradient id="paint30_radial_12106_38052" cx="0" cy="0" r="1" gradientUnits="userSpaceOnUse" gradientTransform="translate(12.9912 20.2527) rotate(-175.691) scale(10.019 0.698675)">
<stop stop-color="#ADABAF"/>
<stop offset="1" stop-color="#ADABAF" stop-opacity="0"/>
</radialGradient>
<radialGradient id="paint31_radial_12106_38052" cx="0" cy="0" r="1" gradientUnits="userSpaceOnUse" gradientTransform="translate(13.2915 20.9107) rotate(-175.506) scale(9.25121 0.645133)">
<stop stop-color="#CDC9D1"/>
<stop offset="1" stop-color="#CDC9D1" stop-opacity="0"/>
</radialGradient>
<radialGradient id="paint32_radial_12106_38052" cx="0" cy="0" r="1" gradientUnits="userSpaceOnUse" gradientTransform="translate(4.06871 13.9433) rotate(82.4291) scale(6.41926 0.760854)">
<stop stop-color="#CDCAD0"/>
<stop offset="1" stop-color="#CDCAD0" stop-opacity="0"/>
</radialGradient>
<radialGradient id="paint33_radial_12106_38052" cx="0" cy="0" r="1" gradientUnits="userSpaceOnUse" gradientTransform="translate(23.5236 13.5782) rotate(103.51) scale(8.88009 1.05253)">
<stop stop-color="#B5B2B9"/>
<stop offset="1" stop-color="#B5B2B9" stop-opacity="0"/>
</radialGradient>
<radialGradient id="paint34_radial_12106_38052" cx="0" cy="0" r="1" gradientUnits="userSpaceOnUse" gradientTransform="translate(4.63255 13.5002) rotate(86.2139) scale(5.48925 0.650623)">
<stop stop-color="#C0BDC3"/>
<stop offset="1" stop-color="#C0BDC3" stop-opacity="0"/>
</radialGradient>
<radialGradient id="paint35_radial_12106_38052" cx="0" cy="0" r="1" gradientUnits="userSpaceOnUse" gradientTransform="translate(22.2925 14.0686) rotate(102.907) scale(7.58469 1.16246)">
<stop stop-color="#8F8D92"/>
<stop offset="1" stop-color="#8F8D92" stop-opacity="0"/>
</radialGradient>
<radialGradient id="paint36_radial_12106_38052" cx="0" cy="0" r="1" gradientUnits="userSpaceOnUse" gradientTransform="translate(22.0005 5.5) rotate(140.071) scale(23.8715 13.395)">
<stop offset="0.937646" stop-color="#ABA3B3" stop-opacity="0"/>
<stop offset="1" stop-color="#A197AC"/>
</radialGradient>
<linearGradient id="paint37_linear_12106_38052" x1="24.3797" y1="15.3386" x2="26.189" y2="15.8211" gradientUnits="userSpaceOnUse">
<stop stop-color="#8F8C92"/>
<stop offset="0.536458" stop-color="#C5C1C9"/>
<stop offset="1" stop-color="#C1BFC4"/>
</linearGradient>
<radialGradient id="paint38_radial_12106_38052" cx="0" cy="0" r="1" gradientUnits="userSpaceOnUse" gradientTransform="translate(24.5784 17.5937) rotate(-75.9313) scale(13.3698 6.54756)">
<stop offset="0.891128" stop-color="#9E9AA6" stop-opacity="0"/>
<stop offset="0.979005" stop-color="#9E9AA6"/>
</radialGradient>
<radialGradient id="paint39_radial_12106_38052" cx="0" cy="0" r="1" gradientUnits="userSpaceOnUse" gradientTransform="translate(27.3909 6.21875) rotate(104.096) scale(18.2207 5.84493)">
<stop offset="0.950067" stop-color="#AFAAB3" stop-opacity="0"/>
<stop offset="1" stop-color="#92889E"/>
</radialGradient>
<linearGradient id="paint40_linear_12106_38052" x1="26.5508" y1="4.375" x2="27.6719" y2="4.375" gradientUnits="userSpaceOnUse">
<stop stop-color="#386CAA"/>
<stop offset="1" stop-color="#386CAA" stop-opacity="0"/>
</linearGradient>
<radialGradient id="paint41_radial_12106_38052" cx="0" cy="0" r="1" gradientUnits="userSpaceOnUse" gradientTransform="translate(28.4844 4.10156) rotate(90) scale(0.856164 1.69521)">
<stop stop-color="#6B9ADA"/>
<stop offset="1" stop-color="#6B9ADA" stop-opacity="0"/>
</radialGradient>
<radialGradient id="paint42_radial_12106_38052" cx="0" cy="0" r="1" gradientUnits="userSpaceOnUse" gradientTransform="translate(28.6963 3.90586) rotate(92.0273) scale(1.32833 2.41769)">
<stop offset="0.610189" stop-color="#36559D" stop-opacity="0"/>
<stop offset="1" stop-color="#36559D"/>
</radialGradient>
</defs>
</svg>
